# xmcd CD database file
#
# Track frame offsets:
#	150
#	15083
#	69680
#	86342
#	122417
#	144863
#	166452
#	188290
#	215662
#	247508
#	253412
#	273621
#	312029
#
# Disc length: 4430 seconds
#
# Revision: 0
# Processed by: cddbd v1.5.2PL0 Copyright (c) Steve Scherf et al.
# Submitted via: CDex 1.70beta2
#
DISCID=a2114c0d
DTITLE=Rick Helzer and Vinny Golia - Fancy Meeting You Here
DYEAR=2004
DGENRE=Jazz
TTITLE0=You Tell'em Kwai-Chung
TTITLE1=Are We There Yet?
TTITLE2=I Just Get Dizzy Watching You....
TTITLE3=1st In The Fast Walking Julius Trilogy
TTITLE4=All Upset About The Kirwood Dirby
TTITLE5=1st In The Fast Walking Julius Trilogy (part 2)
TTITLE6=The Insidious Tortures Of Brian Henderson
TTITLE7=Silent Voices
TTITLE8=Let's All Sing The Arnold Griffith Song
TTITLE9=Sub Code (For 5 Soprillo Saxophones)
TTITLE10=Blue Sphere
TTITLE11=Green On Purple
TTITLE12=Blue Sphere (Reprise)
EXTD=YEAR: 2004
EXTT0=
EXTT1=
EXTT2=
EXTT3=
EXTT4=
EXTT5=
EXTT6=
EXTT7=
EXTT8=
EXTT9=
EXTT10=
EXTT11=
EXTT12=
PLAYORDER=
